<?xml version="1.0" encoding="UTF-8"?>
<svg id="Layer_2" data-name="Layer 2" xmlns="http://www.w3.org/2000/svg" viewBox="0 0 53.85 53.63">
  <defs>
    <style>
      .cls-1 {
        fill: #0505ff;
      }
    </style>
  </defs>
  <g id="Layer_1-2" data-name="Layer 1">
    <path class="cls-1" d="M2.49,38.63c5.53-1.45,11.17-7.74,13.12-9.86.46-.5.7-1.14.7-1.81v-.29c0-.68-.25-1.32-.71-1.82-1.93-2.08-7.44-8.2-12.86-9.78-1.5-.44-2.74-2.03-2.74-3.59V3.57C0,1.6,1.6,0,3.57,0h46.71c1.97,0,3.57,1.6,3.57,3.57v7.96c0,1.65-1.1,3.07-2.69,3.54-5.33,1.58-10.86,7.7-12.81,9.78-.47.5-.72,1.14-.72,1.83v.27c0,.68.25,1.33.72,1.83,1.95,2.08,7.49,8.2,12.81,9.78,1.59.47,2.69,1.89,2.69,3.54v7.96c0,1.97-1.6,3.57-3.57,3.57H3.57c-1.97,0-3.57-1.6-3.57-3.57v-8.17c0-1.52,1.01-2.87,2.49-3.25h0Z"/>
  </g>
</svg>