<?xml version="1.0" encoding="UTF-8"?>
<svg id="Layer_2" data-name="Layer 2" xmlns="http://www.w3.org/2000/svg" viewBox="0 0 107.58 59.54">
  <defs>
    <style>
      .cls-1 {
        fill: #fff;
      }

      .cls-2 {
        fill: #0505ff;
      }
    </style>
  </defs>
  <g id="Layer_1-2" data-name="Layer 1">
    <path class="cls-1" d="M0,24.75V1.76C0,.79.79,0,1.76,0h3.92c.81,0,1.51.54,1.74,1.32.78,2.62,3.79,5.35,4.82,6.31.25.23.56.35.9.35h.13c.34,0,.65-.12.9-.35,1.02-.96,4.04-3.68,4.82-6.31.23-.78.93-1.32,1.74-1.32h3.92c.97,0,1.76.79,1.76,1.76v22.99c0,.97-.79,1.76-1.76,1.76H1.77c-.97,0-1.76-.79-1.76-1.76h-.01Z"/>
    <path class="cls-2" d="M28.22,19.08c2.72-.71,5.5-3.81,6.46-4.85.23-.24.35-.56.35-.89v-.14c0-.33-.12-.65-.35-.89-.95-1.02-3.66-4.04-6.33-4.82-.74-.22-1.35-1-1.35-1.77V1.83c0-.97.79-1.76,1.76-1.76h22.99c.97,0,1.76.79,1.76,1.76v3.92c0,.81-.54,1.51-1.32,1.74-2.62.78-5.35,3.79-6.31,4.82-.23.25-.35.56-.35.9v.13c0,.34.12.65.35.9.96,1.02,3.68,4.04,6.31,4.82.78.23,1.32.93,1.32,1.74v3.92c0,.97-.79,1.76-1.76,1.76h-22.99c-.97,0-1.76-.79-1.76-1.76v-4.02c0-.75.5-1.41,1.22-1.6v-.02Z"/>
    <path class="cls-1" d="M61.57,1.2c1.14,2.89,6.27,5.84,7.53,6.64.21.13.45.2.7.2h.02c.48,0,.92-.26,1.16-.68.62-1.14,1.87-3.53,2.22-5.9.12-.84.88-1.45,1.73-1.45h3.83c.97,0,1.76.79,1.76,1.76v22.99c0,.97-.79,1.76-1.76,1.76h-4.06c-.74,0-1.37-.48-1.66-1.17-1.17-2.82-6.38-5.81-7.64-6.61-.21-.13-.45-.2-.7-.2h0c-.49,0-.94.27-1.17.71-.59,1.15-1.77,3.51-2.1,5.81-.12.85-.87,1.46-1.73,1.46h-3.83c-.97,0-1.76-.79-1.76-1.76V1.77c0-.97.79-1.76,1.76-1.76h4.04c.75,0,1.38.49,1.66,1.19h0Z"/>
    <path class="cls-1" d="M88.62,28.66c1.14,2.89,6.27,5.84,7.53,6.64.21.13.45.2.7.2h.02c.48,0,.92-.26,1.16-.68.62-1.14,1.87-3.53,2.22-5.9.12-.84.88-1.45,1.73-1.45h3.83c.97,0,1.76.79,1.76,1.76v22.99c0,.97-.79,1.76-1.76,1.76h-4.06c-.74,0-1.37-.48-1.66-1.17-1.17-2.82-6.38-5.81-7.64-6.61-.21-.13-.45-.2-.7-.2h0c-.49,0-.94.27-1.17.71-.59,1.15-1.77,3.51-2.1,5.81-.12.85-.87,1.46-1.73,1.46h-3.83c-.97,0-1.76-.79-1.76-1.76v-22.99c0-.97.79-1.76,1.76-1.76h4.04c.75,0,1.38.49,1.66,1.19h0Z"/>
    <path class="cls-1" d="M88.52,1.4c.47,2.39,2.18,4.65,2.97,5.85.32.49.87.79,1.47.79h2.83c.59,0,1.15-.29,1.47-.79.78-1.21,2.5-3.47,2.97-5.84.15-.77.93-1.39,1.71-1.39h3.88c.97,0,1.76.79,1.76,1.76v22.99c0,.97-.79,1.76-1.76,1.76h-3.89c-.83,0-1.55-.58-1.71-1.39-.48-2.33-2.19-4.58-2.97-5.8-.32-.5-.88-.8-1.47-.8h-2.8c-.59,0-1.15.3-1.47.8-.78,1.21-2.49,3.47-2.97,5.8-.17.81-.88,1.39-1.71,1.39h-3.89c-.97,0-1.76-.79-1.76-1.76V1.78c0-.97.79-1.76,1.76-1.76h3.88c.78,0,1.56.63,1.71,1.39h-.01Z"/>
    <path class="cls-1" d="M34.23,53.87h-5.48c-.97,0-1.76-.79-1.76-1.76v-22.99c0-.97.79-1.76,1.76-1.76h3.83c.89,0,1.65.67,1.75,1.56.33,2.96.49,6.44.66,15.22.02.95.8,1.72,1.75,1.72h7.14c.96,0,1.74-.77,1.76-1.73.16-8.76.12-12.27.43-15.2.09-.89.85-1.56,1.75-1.56h3.83c.97,0,1.76.79,1.76,1.76v22.99c0,.97-.79,1.76-1.76,1.76h-5.48"/>
    <path class="cls-1" d="M73.27,27.37h5.48c.97,0,1.76.79,1.76,1.76v22.99c0,.97-.79,1.76-1.76,1.76h-3.84c-.87,0-1.6-.64-1.74-1.51-.48-2.98-2.43-6.51-2.66-15.36-.02-.95-.8-1.72-1.75-1.72h-2.9c-.95,0-1.73.77-1.75,1.72-.23,8.84-2.17,12.39-2.66,15.36-.14.86-.86,1.5-1.74,1.5h-3.84c-.97,0-1.76-.79-1.76-1.76v-22.99c0-.97.79-1.76,1.76-1.76h5.48"/>
    <path class="cls-1" d="M24.64,27.14H1.76c-.97,0-1.76.79-1.76,1.76v22.99c0,.97.79,1.75,1.76,1.75h4.38c.06.26.18.51.37.73,1.92,2.28,5.46,4.32,6.46,4.96.21.14.45.21.7.21h.02c.49,0,.93-.26,1.16-.69.56-1.03,1.64-3.07,2.08-5.21h7.71c.97,0,1.76-.78,1.76-1.75v-22.99c0-.97-.79-1.76-1.76-1.76h0ZM17.85,42.85c.56.27.95.79.95,1.41h0c0,.98-.79,1.76-1.76,1.76h-7.26c-.97,0-1.76-.78-1.76-1.75h0c0-.63.39-1.15.94-1.42,1.15-.56,2.25-1.94,2.31-1.94v-.51c-.06,0-1.16-1.37-2.31-1.93-.55-.27-.94-.8-.94-1.41h0c0-.98.79-1.77,1.76-1.77h7.26c.97,0,1.76.79,1.76,1.76,0,.62-.39,1.14-.95,1.41-1.18.56-2.26,1.94-2.32,1.94v.51c.06,0,1.15,1.38,2.32,1.94Z"/>
  </g>
</svg>