{
  "asset": {
    "version": "2.0",
    "generator": "THREE.GLTFExporter r176"
  },
  "scenes": [
    {
      "name": "Scene",
      "nodes": [
        7
      ]
    }
  ],
  "scene": 0,
  "nodes": [
    {
      "matrix": [
        -14.036609155396143,
        5.558868109664167,
        0.015037426555001773,
        0,
        -0.01503646300662308,
        0.002871645541192167,
        -15.09726351273184,
        0,
        -5.558867651745319,
        -14.036615764756355,
        0.0028666021385002232,
        0,
        -2.1248483657836914,
        -1.8231205940246582,
        0.034441590309143066,
        1
      ],
      "name": "Area",
      "extras": {
        "name": "Area"
      }
    },
    {
      "matrix": [
        -14.036609171330666,
        -5.5588674645504454,
        -0.01503850666535699,
        0,
        -0.015036592205820615,
        -0.0028742345091216518,
        15.097263397350188,
        0,
        -5.558867752248628,
        14.03661765348568,
        -0.002864207189479709,
        0,
        -2.1248483657836914,
        3.5777602195739746,
        0.034441590309143066,
        1
      ],
      "name": "Area001",
      "extras": {
        "name": "Area.001"
      }
    },
    {
      "name": "Cube001",
      "extras": {
        "name": "Cube001"
      },
      "mesh": 0
    },
    {
      "name": "Cube001_1",
      "extras": {
        "name": "Cube001_1"
      },
      "mesh": 1
    },
    {
      "matrix": [
        1,
        0,
        0,
        0,
        0,
        1,
        0,
        0,
        0,
        0,
        1,
        0,
        2.3477892875671387,
        -0.458510160446167,
        19.99242401123047,
        1
      ],
      "name": "Cube",
      "extras": {
        "name": "Cube"
      },
      "children": [
        2,
        3
      ]
    },
    {
      "matrix": [
        1,
        0,
        0,
        0,
        0,
        1,
        0,
        0,
        0,
        0,
        1,
        0,
        -0.007892012596130371,
        0.14731240272521973,
        0.034441590309143066,
        1
      ],
      "name": "Toffee_(melody)",
      "extras": {
        "name": "Toffee (melody)"
      },
      "children": [
        4
      ]
    },
    {
      "name": "candyglb",
      "extras": {
        "name": "candy.glb"
      },
      "children": [
        0,
        1,
        5
      ]
    },
    {
      "name": "candy.gltf",
      "children": [
        6
      ]
    }
  ],
  "bufferViews": [
    {
      "buffer": 0,
      "byteOffset": 0,
      "byteLength": 6048,
      "target": 34962,
      "byteStride": 12
    },
    {
      "buffer": 0,
      "byteOffset": 6048,
      "byteLength": 6048,
      "target": 34962,
      "byteStride": 12
    },
    {
      "buffer": 0,
      "byteOffset": 12096,
      "byteLength": 4032,
      "target": 34962,
      "byteStride": 8
    },
    {
      "buffer": 0,
      "byteOffset": 16128,
      "byteLength": 4464,
      "target": 34963
    },
    {
      "buffer": 0,
      "byteOffset": 20592,
      "byteLength": 660,
      "target": 34962,
      "byteStride": 12
    },
    {
      "buffer": 0,
      "byteOffset": 21252,
      "byteLength": 660,
      "target": 34962,
      "byteStride": 12
    },
    {
      "buffer": 0,
      "byteOffset": 21912,
      "byteLength": 440,
      "target": 34962,
      "byteStride": 8
    },
    {
      "buffer": 0,
      "byteOffset": 22352,
      "byteLength": 504,
      "target": 34963
    }
  ],
  "buffers": [
    {
      "byteLength": 22856,
      "uri": "data:application/octet-stream;base64,"
    }
  ],
  "accessors": [
    {
      "bufferView": 0,
      "componentType": 5126,
      "count": 504,
      "max": [
        -1.678046464920044,
        2.3541042804718018,
        -18.169164657592773
      ],
      "min": [
        -3.0247888565063477,
        -0.5387132167816162,
        -20.996854782104492
      ],
      "type": "VEC3"
    },
    {
      "bufferView": 1,
      "componentType": 5126,
      "count": 504,
      "max": [
        1,
        0.9893431067466736,
        0.9945703744888306
      ],
      "min": [
        -0.9999462366104126,
        -0.9998986721038818,
        -0.9996973872184753
      ],
      "type": "VEC3"
    },
    {
      "bufferView": 2,
      "componentType": 5126,
      "count": 504,
      "max": [
        0.9791961908340454,
        0.6446820497512817
      ],
      "min": [
        0.02620227262377739,
        0.14754348993301392
      ],
      "type": "VEC2"
    },
    {
      "bufferView": 3,
      "componentType": 5123,
      "count": 2232,
      "max": [
        503
      ],
      "min": [
        0
      ],
      "type": "SCALAR"
    },
    {
      "bufferView": 4,
      "componentType": 5126,
      "count": 55,
      "max": [
        -1.7104504108428955,
        1.5607680082321167,
        -18.951688766479492
      ],
      "min": [
        -2.98587703704834,
        1.0101754665374756,
        -19.489368438720703
      ],
      "type": "VEC3"
    },
    {
      "bufferView": 5,
      "componentType": 5126,
      "count": 55,
      "max": [
        0.7281026840209961,
        0.9893431067466736,
        0.9945703744888306
      ],
      "min": [
        -0.7319713830947876,
        -0.10589686781167984,
        -0.15069688856601715
      ],
      "type": "VEC3"
    },
    {
      "bufferView": 6,
      "componentType": 5126,
      "count": 55,
      "max": [
        0.36287763714790344,
        0.36599308252334595
      ],
      "min": [
        0.1588456779718399,
        0.2527706027030945
      ],
      "type": "VEC2"
    },
    {
      "bufferView": 7,
      "componentType": 5123,
      "count": 252,
      "max": [
        54
      ],
      "min": [
        0
      ],
      "type": "SCALAR"
    }
  ],
  "materials": [
    {
      "pbrMetallicRoughness": {
        "metallicFactor": 0,
        "roughnessFactor": 0.5,
        "baseColorTexture": {
          "index": 0,
          "texCoord": 0
        }
      },
      "doubleSided": true,
      "name": "Material.001"
    },
    {
      "pbrMetallicRoughness": {
        "metallicFactor": 0,
        "roughnessFactor": 0.5,
        "baseColorTexture": {
          "index": 1,
          "texCoord": 0
        }
      },
      "doubleSided": true,
      "name": "Material.003"
    }
  ],
  "textures": [
    {
      "sampler": 0,
      "source": 0,
      "name": "MELODY"
    },
    {
      "sampler": 1,
      "source": 1,
      "name": "20220620_090913"
    }
  ],
  "samplers": [
    {
      "magFilter": 9729,
      "minFilter": 9987,
      "wrapS": 10497,
      "wrapT": 10497
    },
    {
      "magFilter": 9729,
      "minFilter": 9987,
      "wrapS": 10497,
      "wrapT": 10497
    }
  ],
  "images": [
    {
      "mimeType": "image/jpeg",
      "uri": "data:image/jpeg;base64,"
    },
    {
      "mimeType": "image/jpeg",
      "uri": "data:image/jpeg;base64,"
    }
  ],
  "meshes": [
    {
      "primitives": [
        {
          "mode": 4,
          "attributes": {
            "POSITION": 0,
            "NORMAL": 1,
            "TEXCOORD_0": 2
          },
          "indices": 3,
          "material": 0
        }
      ]
    },
    {
      "primitives": [
        {
          "mode": 4,
          "attributes": {
            "POSITION": 4,
            "NORMAL": 5,
            "TEXCOORD_0": 6
          },
          "indices": 7,
          "material": 1
        }
      ]
    }
  ]
}