{
  "asset": {
    "version": "2.0",
    "generator": "THREE.GLTFExporter r176"
  },
  "scenes": [
    {
      "name": "Scene",
      "nodes": [
        9
      ]
    }
  ],
  "scene": 0,
  "nodes": [
    {
      "name": "Sphere003",
      "extras": {
        "name": "Sphere003"
      },
      "mesh": 0
    },
    {
      "name": "Sphere003_1",
      "extras": {
        "name": "Sphere003_1"
      },
      "mesh": 1
    },
    {
      "name": "Sphere003_2",
      "extras": {
        "name": "Sphere003_2"
      },
      "mesh": 2
    },
    {
      "name": "Sphere003_3",
      "extras": {
        "name": "Sphere003_3"
      },
      "mesh": 3
    },
    {
      "name": "Sphere003_4",
      "extras": {
        "name": "Sphere003_4"
      },
      "mesh": 4
    },
    {
      "name": "Sphere003_5",
      "extras": {
        "name": "Sphere003_5"
      },
      "mesh": 5
    },
    {
      "matrix": [
        11.723072052001953,
        0,
        0,
        0,
        0,
        11.723072052001953,
        0,
        0,
        0,
        0,
        11.723072052001953,
        0,
        0.00002230145037174225,
        1.450368881225586,
        0.20651960372924805,
        1
      ],
      "name": "Straw",
      "extras": {
        "name": "Straw"
      },
      "children": [
        0,
        1,
        2,
        3,
        4,
        5
      ]
    },
    {
      "matrix": [
        1,
        0,
        0,
        0,
        0,
        1,
        0,
        0,
        0,
        0,
        1,
        0,
        -0.007892012596130371,
        0.14731240272521973,
        0.034441590309143066,
        1
      ],
      "name": "Pikachu",
      "extras": {
        "name": "Pikachu"
      },
      "children": [
        6
      ]
    },
    {
      "name": "milkteaglb",
      "extras": {
        "name": "milktea.glb"
      },
      "children": [
        7
      ]
    },
    {
      "name": "milktea.gltf",
      "children": [
        8
      ]
    }
  ],
  "bufferViews": [
    {
      "buffer": 0,
      "byteOffset": 0,
      "byteLength": 936,
      "target": 34962,
      "byteStride": 12
    },
    {
      "buffer": 0,
      "byteOffset": 936,
      "byteLength": 936,
      "target": 34962,
      "byteStride": 12
    },
    {
      "buffer": 0,
      "byteOffset": 1872,
      "byteLength": 624,
      "target": 34962,
      "byteStride": 8
    },
    {
      "buffer": 0,
      "byteOffset": 2496,
      "byteLength": 624,
      "target": 34962,
      "byteStride": 8
    },
    {
      "buffer": 0,
      "byteOffset": 3120,
      "byteLength": 396,
      "target": 34963
    },
    {
      "buffer": 0,
      "byteOffset": 3516,
      "byteLength": 160320,
      "target": 34962,
      "byteStride": 12
    },
    {
      "buffer": 0,
      "byteOffset": 163836,
      "byteLength": 160320,
      "target": 34962,
      "byteStride": 12
    },
    {
      "buffer": 0,
      "byteOffset": 324156,
      "byteLength": 106880,
      "target": 34962,
      "byteStride": 8
    },
    {
      "buffer": 0,
      "byteOffset": 431036,
      "byteLength": 106880,
      "target": 34962,
      "byteStride": 8
    },
    {
      "buffer": 0,
      "byteOffset": 537916,
      "byteLength": 115188,
      "target": 34963
    },
    {
      "buffer": 0,
      "byteOffset": 653104,
      "byteLength": 3072,
      "target": 34962,
      "byteStride": 12
    },
    {
      "buffer": 0,
      "byteOffset": 656176,
      "byteLength": 3072,
      "target": 34962,
      "byteStride": 12
    },
    {
      "buffer": 0,
      "byteOffset": 659248,
      "byteLength": 2048,
      "target": 34962,
      "byteStride": 8
    },
    {
      "buffer": 0,
      "byteOffset": 661296,
      "byteLength": 2048,
      "target": 34962,
      "byteStride": 8
    },
    {
      "buffer": 0,
      "byteOffset": 663344,
      "byteLength": 2280,
      "target": 34963
    },
    {
      "buffer": 0,
      "byteOffset": 665624,
      "byteLength": 1200,
      "target": 34962,
      "byteStride": 12
    },
    {
      "buffer": 0,
      "byteOffset": 666824,
      "byteLength": 1200,
      "target": 34962,
      "byteStride": 12
    },
    {
      "buffer": 0,
      "byteOffset": 668024,
      "byteLength": 800,
      "target": 34962,
      "byteStride": 8
    },
    {
      "buffer": 0,
      "byteOffset": 668824,
      "byteLength": 800,
      "target": 34962,
      "byteStride": 8
    },
    {
      "buffer": 0,
      "byteOffset": 669624,
      "byteLength": 768,
      "target": 34963
    },
    {
      "buffer": 0,
      "byteOffset": 670392,
      "byteLength": 1860,
      "target": 34962,
      "byteStride": 12
    },
    {
      "buffer": 0,
      "byteOffset": 672252,
      "byteLength": 1860,
      "target": 34962,
      "byteStride": 12
    },
    {
      "buffer": 0,
      "byteOffset": 674112,
      "byteLength": 1240,
      "target": 34962,
      "byteStride": 8
    },
    {
      "buffer": 0,
      "byteOffset": 675352,
      "byteLength": 1240,
      "target": 34962,
      "byteStride": 8
    },
    {
      "buffer": 0,
      "byteOffset": 676592,
      "byteLength": 1200,
      "target": 34963
    },
    {
      "buffer": 0,
      "byteOffset": 677792,
      "byteLength": 2880,
      "target": 34962,
      "byteStride": 12
    },
    {
      "buffer": 0,
      "byteOffset": 680672,
      "byteLength": 2880,
      "target": 34962,
      "byteStride": 12
    },
    {
      "buffer": 0,
      "byteOffset": 683552,
      "byteLength": 1920,
      "target": 34962,
      "byteStride": 8
    },
    {
      "buffer": 0,
      "byteOffset": 685472,
      "byteLength": 1920,
      "target": 34962,
      "byteStride": 8
    },
    {
      "buffer": 0,
      "byteOffset": 687392,
      "byteLength": 2004,
      "target": 34963
    }
  ],
  "buffers": [
    {
      "byteLength": 689396,
      "uri": "data:application/octet-stream;base64,"
    }
  ],
  "accessors": [
    {
      "bufferView": 0,
      "componentType": 5126,
      "count": 78,
      "max": [
        0.006742142140865326,
        0.08961205184459686,
        0.0249289870262146
      ],
      "min": [
        -0.006745938677340746,
        -0.11238177865743637,
        -0.03794807195663452
      ],
      "type": "VEC3"
    },
    {
      "bufferView": 1,
      "componentType": 5126,
      "count": 78,
      "max": [
        1,
        0.20900319516658783,
        0.9779149293899536
      ],
      "min": [
        -1,
        -0.20900319516658783,
        -0.9779149293899536
      ],
      "type": "VEC3"
    },
    {
      "bufferView": 2,
      "componentType": 5126,
      "count": 78,
      "max": [
        1,
        0.5625
      ],
      "min": [
        0,
        0
      ],
      "type": "VEC2"
    },
    {
      "bufferView": 3,
      "componentType": 5126,
      "count": 78,
      "max": [
        0.9839439392089844,
        0.734268307685852
      ],
      "min": [
        0.19870887696743011,
        0.2038927674293518
      ],
      "type": "VEC2"
    },
    {
      "bufferView": 4,
      "componentType": 5123,
      "count": 198,
      "max": [
        77
      ],
      "min": [
        0
      ],
      "type": "SCALAR"
    },
    {
      "bufferView": 5,
      "componentType": 5126,
      "count": 13360,
      "max": [
        0.03599817305803299,
        -0.0642264112830162,
        0.013947529718279839
      ],
      "min": [
        -0.03719917684793472,
        -0.1473436951637268,
        -0.06004220247268677
      ],
      "type": "VEC3"
    },
    {
      "bufferView": 6,
      "componentType": 5126,
      "count": 13360,
      "max": [
        1,
        1,
        1
      ],
      "min": [
        -1,
        -1,
        -1
      ],
      "type": "VEC3"
    },
    {
      "bufferView": 7,
      "componentType": 5126,
      "count": 13360,
      "max": [
        1,
        1
      ],
      "min": [
        0,
        0
      ],
      "type": "VEC2"
    },
    {
      "bufferView": 8,
      "componentType": 5126,
      "count": 13360,
      "max": [
        0.9716885089874268,
        0.8017130494117737
      ],
      "min": [
        -1.2965955420440878e-8,
        0.04052990674972534
      ],
      "type": "VEC2"
    },
    {
      "bufferView": 9,
      "componentType": 5123,
      "count": 57594,
      "max": [
        13359
      ],
      "min": [
        0
      ],
      "type": "SCALAR"
    },
    {
      "bufferView": 10,
      "componentType": 5126,
      "count": 256,
      "max": [
        0.04765409231185913,
        -0.03480179235339165,
        0.03576609492301941
      ],
      "min": [
        -0.04765789210796356,
        -0.14846432209014893,
        -0.06365460902452469
      ],
      "type": "VEC3"
    },
    {
      "bufferView": 11,
      "componentType": 5126,
      "count": 256,
      "max": [
        0.999828040599823,
        0.9997959733009338,
        0.9938763976097107
      ],
      "min": [
        -0.999828040599823,
        -0.9997167587280273,
        -0.9987987875938416
      ],
      "type": "VEC3"
    },
    {
      "bufferView": 12,
      "componentType": 5126,
      "count": 256,
      "max": [
        0.8868625164031982,
        1.050281286239624
      ],
      "min": [
        0.11313757300376892,
        0.01910918951034546
      ],
      "type": "VEC2"
    },
    {
      "bufferView": 13,
      "componentType": 5126,
      "count": 256,
      "max": [
        0.823636531829834,
        1
      ],
      "min": [
        -3.726421393679402e-9,
        0.13445675373077393
      ],
      "type": "VEC2"
    },
    {
      "bufferView": 14,
      "componentType": 5123,
      "count": 1140,
      "max": [
        255
      ],
      "min": [
        0
      ],
      "type": "SCALAR"
    },
    {
      "bufferView": 15,
      "componentType": 5126,
      "count": 100,
      "max": [
        0.055458683520555496,
        -0.0013267844915390015,
        0.048878591507673264
      ],
      "min": [
        -0.05546248331665993,
        -0.027956366539001465,
        -0.06269869953393936
      ],
      "type": "VEC3"
    },
    {
      "bufferView": 16,
      "componentType": 5126,
      "count": 100,
      "max": [
        1,
        0.39647626876831055,
        0.991487979888916
      ],
      "min": [
        -1,
        -0.39639195799827576,
        -0.991487979888916
      ],
      "type": "VEC3"
    },
    {
      "bufferView": 17,
      "componentType": 5126,
      "count": 100,
      "max": [
        0,
        1
      ],
      "min": [
        0,
        1
      ],
      "type": "VEC2"
    },
    {
      "bufferView": 18,
      "componentType": 5126,
      "count": 100,
      "max": [
        0.9913192987442017,
        1
      ],
      "min": [
        0.8236364722251892,
        0.036480605602264404
      ],
      "type": "VEC2"
    },
    {
      "bufferView": 19,
      "componentType": 5123,
      "count": 384,
      "max": [
        99
      ],
      "min": [
        0
      ],
      "type": "SCALAR"
    },
    {
      "bufferView": 20,
      "componentType": 5126,
      "count": 155,
      "max": [
        0.05455746501684189,
        0.028689071536064148,
        0.04764489457011223
      ],
      "min": [
        -0.054561272263526917,
        -0.018463820219039917,
        -0.06054489314556122
      ],
      "type": "VEC3"
    },
    {
      "bufferView": 21,
      "componentType": 5126,
      "count": 155,
      "max": [
        0.9230587482452393,
        -0.2611961364746094,
        0.8650997281074524
      ],
      "min": [
        -0.9230587482452393,
        -0.9999595880508423,
        -0.9652857780456543
      ],
      "type": "VEC3"
    },
    {
      "bufferView": 22,
      "componentType": 5126,
      "count": 155,
      "max": [
        0,
        1
      ],
      "min": [
        0,
        1
      ],
      "type": "VEC2"
    },
    {
      "bufferView": 23,
      "componentType": 5126,
      "count": 155,
      "max": [
        0.8885139226913452,
        1
      ],
      "min": [
        0.1724861115217209,
        0.1714951992034912
      ],
      "type": "VEC2"
    },
    {
      "bufferView": 24,
      "componentType": 5123,
      "count": 600,
      "max": [
        154
      ],
      "min": [
        0
      ],
      "type": "SCALAR"
    },
    {
      "bufferView": 25,
      "componentType": 5126,
      "count": 240,
      "max": [
        0.05372636392712593,
        -0.009498879313468933,
        0.04506557807326317
      ],
      "min": [
        -0.05373016372323036,
        -0.15350224077701569,
        -0.06668666005134583
      ],
      "type": "VEC3"
    },
    {
      "bufferView": 26,
      "componentType": 5126,
      "count": 240,
      "max": [
        0.9999141097068787,
        0.9997959733009338,
        0.9931792616844177
      ],
      "min": [
        -0.9999141097068787,
        -0.9997167587280273,
        -0.9985462427139282
      ],
      "type": "VEC3"
    },
    {
      "bufferView": 27,
      "componentType": 5126,
      "count": 240,
      "max": [
        0.8868625164031982,
        1.050281286239624
      ],
      "min": [
        0.11313757300376892,
        0.01910918951034546
      ],
      "type": "VEC2"
    },
    {
      "bufferView": 28,
      "componentType": 5126,
      "count": 240,
      "max": [
        0.6509532332420349,
        1
      ],
      "min": [
        -1.6791709356311912e-8,
        0
      ],
      "type": "VEC2"
    },
    {
      "bufferView": 29,
      "componentType": 5123,
      "count": 1002,
      "max": [
        239
      ],
      "min": [
        0
      ],
      "type": "SCALAR"
    }
  ],
  "materials": [
    {
      "pbrMetallicRoughness": {
        "baseColorFactor": [
          0.800000011920929,
          0.800000011920929,
          0.800000011920929,
          1
        ],
        "metallicFactor": 0,
        "roughnessFactor": 0.1454545557498932
      },
      "doubleSided": true,
      "name": "Straw plastic material",
      "extensions": {
        "KHR_materials_transmission": {
          "transmissionFactor": 1
        },
        "KHR_materials_volume": {
          "thicknessFactor": 0,
          "attenuationColor": [
            1,
            1,
            1
          ]
        },
        "KHR_materials_ior": {
          "ior": 4.208333333333335
        }
      }
    },
    {
      "pbrMetallicRoughness": {
        "baseColorFactor": [
          0,
          0,
          0,
          1
        ],
        "metallicFactor": 0,
        "roughnessFactor": 0
      },
      "doubleSided": true,
      "name": "Bubble material"
    },
    {
      "pbrMetallicRoughness": {
        "baseColorFactor": [
          0.5532466173171997,
          0.3553643822669983,
          0.20495301485061646,
          1
        ],
        "metallicFactor": 0,
        "roughnessFactor": 0.5
      },
      "name": "Tea material",
      "extensions": {
        "KHR_materials_transmission": {
          "transmissionFactor": 1
        },
        "KHR_materials_volume": {
          "thicknessFactor": 0.14,
          "attenuationColor": [
            1,
            1,
            1
          ]
        },
        "KHR_materials_ior": {
          "ior": 1.5399999618530273
        }
      }
    },
    {
      "pbrMetallicRoughness": {
        "baseColorFactor": [
          0.800000011920929,
          0.800000011920929,
          0.800000011920929,
          1
        ],
        "metallicFactor": 0,
        "roughnessFactor": 0.5
      },
      "doubleSided": true,
      "name": "White Plastic"
    },
    {
      "pbrMetallicRoughness": {
        "baseColorFactor": [
          0.800000011920929,
          0.800000011920929,
          0.800000011920929,
          1
        ],
        "metallicFactor": 0,
        "roughnessFactor": 0.12272727489471436
      },
      "alphaMode": "BLEND",
      "doubleSided": true,
      "name": "Transparent plastic"
    },
    {
      "pbrMetallicRoughness": {
        "baseColorFactor": [
          0.6443073153495789,
          0.619080126285553,
          0.549913763999939,
          0.08636361360549927
        ],
        "metallicFactor": 1,
        "roughnessFactor": 0.5
      },
      "alphaMode": "BLEND",
      "doubleSided": true,
      "name": "Cup Plastic"
    }
  ],
  "meshes": [
    {
      "primitives": [
        {
          "mode": 4,
          "attributes": {
            "POSITION": 0,
            "NORMAL": 1,
            "TEXCOORD_0": 2,
            "TEXCOORD_1": 3
          },
          "indices": 4,
          "material": 0
        }
      ]
    },
    {
      "primitives": [
        {
          "mode": 4,
          "attributes": {
            "POSITION": 5,
            "NORMAL": 6,
            "TEXCOORD_0": 7,
            "TEXCOORD_1": 8
          },
          "indices": 9,
          "material": 1
        }
      ]
    },
    {
      "primitives": [
        {
          "mode": 4,
          "attributes": {
            "POSITION": 10,
            "NORMAL": 11,
            "TEXCOORD_0": 12,
            "TEXCOORD_1": 13
          },
          "indices": 14,
          "material": 2
        }
      ]
    },
    {
      "primitives": [
        {
          "mode": 4,
          "attributes": {
            "POSITION": 15,
            "NORMAL": 16,
            "TEXCOORD_0": 17,
            "TEXCOORD_1": 18
          },
          "indices": 19,
          "material": 3
        }
      ]
    },
    {
      "primitives": [
        {
          "mode": 4,
          "attributes": {
            "POSITION": 20,
            "NORMAL": 21,
            "TEXCOORD_0": 22,
            "TEXCOORD_1": 23
          },
          "indices": 24,
          "material": 4
        }
      ]
    },
    {
      "primitives": [
        {
          "mode": 4,
          "attributes": {
            "POSITION": 25,
            "NORMAL": 26,
            "TEXCOORD_0": 27,
            "TEXCOORD_1": 28
          },
          "indices": 29,
          "material": 5
        }
      ]
    }
  ],
  "extensionsUsed": [
    "KHR_materials_transmission",
    "KHR_materials_volume",
    "KHR_materials_ior"
  ]
}