{
  "asset": {
    "version": "2.0",
    "generator": "THREE.GLTFExporter r176"
  },
  "scenes": [
    {
      "name": "Scene",
      "nodes": [
        3
      ]
    }
  ],
  "scene": 0,
  "nodes": [
    {
      "name": "candyglb",
      "extras": {
        "name": "candy.glb"
      }
    },
    {
      "matrix": [
        41.76976776123047,
        0,
        0,
        0,
        0,
        41.76976776123047,
        0,
        0,
        0,
        0,
        41.76976776123047,
        0,
        0,
        0.7519928137491834,
        0.0278811976313591,
        1
      ],
      "name": "Orange",
      "extras": {
        "name": "Orange"
      },
      "mesh": 0
    },
    {
      "name": "orangeglb",
      "extras": {
        "name": "orange.glb"
      },
      "children": [
        1
      ]
    },
    {
      "name": "orange.gltf",
      "children": [
        0,
        2
      ]
    }
  ],
  "bufferViews": [
    {
      "buffer": 0,
      "byteOffset": 0,
      "byteLength": 258048,
      "target": 34962,
      "byteStride": 12
    },
    {
      "buffer": 0,
      "byteOffset": 258048,
      "byteLength": 258048,
      "target": 34962,
      "byteStride": 12
    },
    {
      "buffer": 0,
      "byteOffset": 516096,
      "byteLength": 172032,
      "target": 34962,
      "byteStride": 8
    },
    {
      "buffer": 0,
      "byteOffset": 688128,
      "byteLength": 344064,
      "target": 34962,
      "byteStride": 16
    }
  ],
  "buffers": [
    {
      "byteLength": 1032192,
      "uri": "data:application/octet-stream;base64,"
    }
  ],
  "accessors": [
    {
      "bufferView": 0,
      "componentType": 5126,
      "count": 21504,
      "max": [
        0.04020833596587181,
        0.03621026873588562,
        0.03850299119949341
      ],
      "min": [
        -0.04020833596587181,
        -0.03621026873588562,
        -0.03850299119949341
      ],
      "type": "VEC3"
    },
    {
      "bufferView": 1,
      "componentType": 5126,
      "count": 21504,
      "max": [
        0.9992866516113281,
        0.9999903440475464,
        0.9993754625320435
      ],
      "min": [
        -0.998289167881012,
        -0.9999833106994629,
        -0.9995127320289612
      ],
      "type": "VEC3"
    },
    {
      "bufferView": 2,
      "componentType": 5126,
      "count": 21504,
      "max": [
        0.9939490556716919,
        0.9939490556716919
      ],
      "min": [
        0.006050977855920792,
        0.09137576818466187
      ],
      "type": "VEC2"
    },
    {
      "bufferView": 3,
      "componentType": 5126,
      "count": 21504,
      "max": [
        0.8237499594688416,
        0.9962380528450012,
        0.9977118968963623,
        1
      ],
      "min": [
        -0.9994823336601257,
        -0.9805933237075806,
        -0.9692646265029907,
        1
      ],
      "type": "VEC4"
    }
  ],
  "materials": [
    {
      "pbrMetallicRoughness": {
        "metallicFactor": 0,
        "roughnessFactor": 1,
        "baseColorTexture": {
          "index": 0,
          "texCoord": 0
        }
      },
      "doubleSided": true,
      "name": "Orange",
      "extensions": {
        "KHR_materials_emissive_strength": {
          "emissiveStrength": 0
        }
      }
    }
  ],
  "textures": [
    {
      "sampler": 0,
      "source": 0,
      "name": "Orange_Base_Color"
    }
  ],
  "samplers": [
    {
      "magFilter": 9729,
      "minFilter": 9987,
      "wrapS": 10497,
      "wrapT": 10497
    }
  ],
  "images": [
    {
      "mimeType": "image/jpeg",
      "uri": "data:image/jpeg;base64,"
    }
  ],
  "meshes": [
    {
      "primitives": [
        {
          "mode": 4,
          "attributes": {
            "POSITION": 0,
            "NORMAL": 1,
            "TEXCOORD_0": 2,
            "TANGENT": 3
          },
          "material": 0
        }
      ]
    }
  ],
  "extensionsUsed": [
    "KHR_materials_emissive_strength"
  ]
}