{
  "asset": {
    "version": "2.0",
    "generator": "THREE.GLTFExporter r176"
  },
  "scenes": [
    {
      "name": "Scene",
      "nodes": [
        6
      ]
    }
  ],
  "scene": 0,
  "nodes": [
    {
      "name": "Circle",
      "extras": {
        "name": "Circle"
      },
      "mesh": 0
    },
    {
      "matrix": [
        1,
        0,
        0,
        0,
        0,
        1,
        0,
        0,
        0,
        0,
        1,
        0,
        0,
        -0.000023573568752323723,
        0,
        1
      ],
      "name": "Circle_1",
      "extras": {
        "name": "Circle_1"
      },
      "mesh": 1
    },
    {
      "name": "Circle_2",
      "extras": {
        "name": "Circle_2"
      },
      "mesh": 2
    },
    {
      "name": "Circle_3",
      "extras": {
        "name": "Circle_3"
      },
      "mesh": 3
    },
    {
      "matrix": [
        1.5671506383654856,
        0,
        -7.615292398500832,
        0,
        0,
        7.774872779846191,
        0,
        0,
        7.615292398500832,
        0,
        1.5671506383654856,
        0,
        0,
        0,
        0,
        1
      ],
      "name": "coffee",
      "extras": {
        "name": "coffee"
      },
      "children": [
        0,
        1,
        2,
        3
      ]
    },
    {
      "name": "coffeeglb",
      "extras": {
        "name": "coffee.glb"
      },
      "children": [
        4
      ]
    },
    {
      "name": "coffeecup.gltf",
      "children": [
        5
      ]
    }
  ],
  "bufferViews": [
    {
      "buffer": 0,
      "byteOffset": 0,
      "byteLength": 4440,
      "target": 34962,
      "byteStride": 12
    },
    {
      "buffer": 0,
      "byteOffset": 4440,
      "byteLength": 4440,
      "target": 34962,
      "byteStride": 12
    },
    {
      "buffer": 0,
      "byteOffset": 8880,
      "byteLength": 2960,
      "target": 34962,
      "byteStride": 8
    },
    {
      "buffer": 0,
      "byteOffset": 11840,
      "byteLength": 2960,
      "target": 34962,
      "byteStride": 8
    },
    {
      "buffer": 0,
      "byteOffset": 14800,
      "byteLength": 3636,
      "target": 34963
    },
    {
      "buffer": 0,
      "byteOffset": 18436,
      "byteLength": 7836,
      "target": 34962,
      "byteStride": 12
    },
    {
      "buffer": 0,
      "byteOffset": 26272,
      "byteLength": 7836,
      "target": 34962,
      "byteStride": 12
    },
    {
      "buffer": 0,
      "byteOffset": 34108,
      "byteLength": 5224,
      "target": 34962,
      "byteStride": 8
    },
    {
      "buffer": 0,
      "byteOffset": 39332,
      "byteLength": 5224,
      "target": 34962,
      "byteStride": 8
    },
    {
      "buffer": 0,
      "byteOffset": 44556,
      "byteLength": 4020,
      "target": 34963
    },
    {
      "buffer": 0,
      "byteOffset": 48576,
      "byteLength": 576,
      "target": 34962,
      "byteStride": 12
    },
    {
      "buffer": 0,
      "byteOffset": 49152,
      "byteLength": 576,
      "target": 34962,
      "byteStride": 12
    },
    {
      "buffer": 0,
      "byteOffset": 49728,
      "byteLength": 384,
      "target": 34962,
      "byteStride": 8
    },
    {
      "buffer": 0,
      "byteOffset": 50112,
      "byteLength": 384,
      "target": 34962,
      "byteStride": 8
    },
    {
      "buffer": 0,
      "byteOffset": 50496,
      "byteLength": 456,
      "target": 34963
    },
    {
      "buffer": 0,
      "byteOffset": 50952,
      "byteLength": 5676,
      "target": 34962,
      "byteStride": 12
    },
    {
      "buffer": 0,
      "byteOffset": 56628,
      "byteLength": 5676,
      "target": 34962,
      "byteStride": 12
    },
    {
      "buffer": 0,
      "byteOffset": 62304,
      "byteLength": 3784,
      "target": 34962,
      "byteStride": 8
    },
    {
      "buffer": 0,
      "byteOffset": 66088,
      "byteLength": 3784,
      "target": 34962,
      "byteStride": 8
    },
    {
      "buffer": 0,
      "byteOffset": 69872,
      "byteLength": 4008,
      "target": 34963
    }
  ],
  "buffers": [
    {
      "byteLength": 73880,
      "uri": "data:application/octet-stream;base64,"
    }
  ],
  "accessors": [
    {
      "bufferView": 0,
      "componentType": 5126,
      "count": 370,
      "max": [
        0.11982288211584091,
        0.2814462184906006,
        0.12103723734617233
      ],
      "min": [
        -0.12225159257650375,
        0.004531294107437134,
        -0.12103723734617233
      ],
      "type": "VEC3"
    },
    {
      "bufferView": 1,
      "componentType": 5126,
      "count": 370,
      "max": [
        1,
        0,
        1
      ],
      "min": [
        -1,
        -1,
        -1
      ],
      "type": "VEC3"
    },
    {
      "bufferView": 2,
      "componentType": 5126,
      "count": 370,
      "max": [
        0.7444136738777161,
        1.0477310419082642
      ],
      "min": [
        0.1966826319694519,
        -0.04773092269897461
      ],
      "type": "VEC2"
    },
    {
      "bufferView": 3,
      "componentType": 5126,
      "count": 370,
      "max": [
        1.2071068286895752,
        1.5098599195480347
      ],
      "min": [
        -0.20710676908493042,
        -0.6053472757339478
      ],
      "type": "VEC2"
    },
    {
      "bufferView": 4,
      "componentType": 5123,
      "count": 1818,
      "max": [
        369
      ],
      "min": [
        0
      ],
      "type": "SCALAR"
    },
    {
      "bufferView": 5,
      "componentType": 5126,
      "count": 653,
      "max": [
        0.11982288211584091,
        0.2887355387210846,
        0.12103723734617233
      ],
      "min": [
        -0.12225159257650375,
        0.2814462184906006,
        -0.12103723734617233
      ],
      "type": "VEC3"
    },
    {
      "bufferView": 6,
      "componentType": 5126,
      "count": 653,
      "max": [
        1,
        1,
        1
      ],
      "min": [
        -1,
        0,
        -1
      ],
      "type": "VEC3"
    },
    {
      "bufferView": 7,
      "componentType": 5126,
      "count": 653,
      "max": [
        0.7443715333938599,
        1.0476467609405518
      ],
      "min": [
        0.1967247724533081,
        -0.04764676094055176
      ],
      "type": "VEC2"
    },
    {
      "bufferView": 8,
      "componentType": 5126,
      "count": 653,
      "max": [
        0.6761572957038879,
        0.7303673028945923
      ],
      "min": [
        0.37983569502830505,
        0.27572739124298096
      ],
      "type": "VEC2"
    },
    {
      "bufferView": 9,
      "componentType": 5123,
      "count": 2010,
      "max": [
        652
      ],
      "min": [
        0
      ],
      "type": "SCALAR"
    },
    {
      "bufferView": 10,
      "componentType": 5126,
      "count": 48,
      "max": [
        0.2319054901599884,
        0.2964242398738861,
        0.02783384546637535
      ],
      "min": [
        0.08744791895151138,
        0.05494654178619385,
        -0.02783379517495632
      ],
      "type": "VEC3"
    },
    {
      "bufferView": 11,
      "componentType": 5126,
      "count": 48,
      "max": [
        0.9764147996902466,
        0.9999459981918335,
        0.9999946355819702
      ],
      "min": [
        -0.9997167587280273,
        -0.9986651539802551,
        -0.9999946355819702
      ],
      "type": "VEC3"
    },
    {
      "bufferView": 12,
      "componentType": 5126,
      "count": 48,
      "max": [
        1,
        1
      ],
      "min": [
        0,
        0
      ],
      "type": "VEC2"
    },
    {
      "bufferView": 13,
      "componentType": 5126,
      "count": 48,
      "max": [
        0,
        1
      ],
      "min": [
        0,
        1
      ],
      "type": "VEC2"
    },
    {
      "bufferView": 14,
      "componentType": 5123,
      "count": 228,
      "max": [
        47
      ],
      "min": [
        0
      ],
      "type": "SCALAR"
    },
    {
      "bufferView": 15,
      "componentType": 5126,
      "count": 473,
      "max": [
        0.1285494565963745,
        0.3099035322666168,
        0.1307772547006607
      ],
      "min": [
        -0.1330050528049469,
        0,
        -0.1307772547006607
      ],
      "type": "VEC3"
    },
    {
      "bufferView": 16,
      "componentType": 5126,
      "count": 473,
      "max": [
        1,
        1,
        1
      ],
      "min": [
        -1,
        -1,
        -1
      ],
      "type": "VEC3"
    },
    {
      "bufferView": 17,
      "componentType": 5126,
      "count": 473,
      "max": [
        1,
        1
      ],
      "min": [
        0,
        0.692072331905365
      ],
      "type": "VEC2"
    },
    {
      "bufferView": 18,
      "componentType": 5126,
      "count": 473,
      "max": [
        1,
        0.6962096691131592
      ],
      "min": [
        0,
        0.31333982944488525
      ],
      "type": "VEC2"
    },
    {
      "bufferView": 19,
      "componentType": 5123,
      "count": 2004,
      "max": [
        472
      ],
      "min": [
        0
      ],
      "type": "SCALAR"
    }
  ],
  "materials": [
    {
      "pbrMetallicRoughness": {
        "baseColorFactor": [
          0.31854677811435356,
          0.2541520943200296,
          0.2541520943200296,
          1
        ],
        "metallicFactor": 1,
        "roughnessFactor": 1
      },
      "doubleSided": true,
      "name": "coffee"
    },
    {
      "pbrMetallicRoughness": {
        "metallicFactor": 0,
        "roughnessFactor": 1,
        "metallicRoughnessTexture": {
          "index": 0,
          "texCoord": 1
        },
        "baseColorTexture": {
          "index": 1,
          "texCoord": 1
        }
      },
      "normalTexture": {
        "index": 2,
        "texCoord": 1
      },
      "doubleSided": true,
      "name": "form",
      "extensions": {
        "KHR_materials_transmission": {
          "transmissionFactor": 0.02909090928733349
        },
        "KHR_materials_volume": {
          "thicknessFactor": 0,
          "attenuationColor": [
            1,
            1,
            1
          ]
        },
        "KHR_materials_ior": {
          "ior": 1.4500000476837158
        }
      }
    },
    {
      "pbrMetallicRoughness": {
        "metallicFactor": 1,
        "roughnessFactor": 0.68
      },
      "doubleSided": true,
      "name": "Realistic_Glass_01.001"
    },
    {
      "pbrMetallicRoughness": {
        "metallicFactor": 1,
        "roughnessFactor": 1
      },
      "name": "cup"
    }
  ],
  "meshes": [
    {
      "primitives": [
        {
          "mode": 4,
          "attributes": {
            "POSITION": 0,
            "NORMAL": 1,
            "TEXCOORD_0": 2,
            "TEXCOORD_1": 3
          },
          "indices": 4,
          "material": 0
        }
      ]
    },
    {
      "primitives": [
        {
          "mode": 4,
          "attributes": {
            "POSITION": 5,
            "NORMAL": 6,
            "TEXCOORD_0": 7,
            "TEXCOORD_1": 8
          },
          "indices": 9,
          "material": 1
        }
      ]
    },
    {
      "primitives": [
        {
          "mode": 4,
          "attributes": {
            "POSITION": 10,
            "NORMAL": 11,
            "TEXCOORD_0": 12,
            "TEXCOORD_1": 13
          },
          "indices": 14,
          "material": 2
        }
      ]
    },
    {
      "primitives": [
        {
          "mode": 4,
          "attributes": {
            "POSITION": 15,
            "NORMAL": 16,
            "TEXCOORD_0": 17,
            "TEXCOORD_1": 18
          },
          "indices": 19,
          "material": 3
        }
      ]
    }
  ],
  "textures": [
    {
      "sampler": 0,
      "source": 0,
      "name": "pexels-hasanalbari-1085966"
    },
    {
      "sampler": 1,
      "source": 1,
      "name": "pexels-hasanalbari-1085966"
    },
    {
      "sampler": 2,
      "source": 1,
      "name": "pexels-hasanalbari-1085966"
    }
  ],
  "samplers": [
    {
      "magFilter": 9729,
      "minFilter": 9987,
      "wrapS": 10497,
      "wrapT": 10497
    },
    {
      "magFilter": 9729,
      "minFilter": 9987,
      "wrapS": 10497,
      "wrapT": 10497
    },
    {
      "magFilter": 9729,
      "minFilter": 9987,
      "wrapS": 10497,
      "wrapT": 10497
    }
  ],
  "images": [
    {
      "mimeType": "image/png",
      "uri": "data:image/png;base64,"
    },
    {
      "mimeType": "image/jpeg",
      "uri": "data:image/jpeg;base64,"
    }
  ],
  "extensionsUsed": [
    "KHR_materials_transmission",
    "KHR_materials_volume",
    "KHR_materials_ior"
  ]
}