{
  "asset": {
    "version": "2.0",
    "generator": "THREE.GLTFExporter r176"
  },
  "scenes": [
    {
      "name": "Scene",
      "nodes": [
        7
      ]
    }
  ],
  "scene": 0,
  "nodes": [
    {
      "name": "Cylinder003",
      "extras": {
        "name": "Cylinder003"
      },
      "mesh": 0
    },
    {
      "name": "Cylinder003_1",
      "extras": {
        "name": "Cylinder003_1"
      },
      "mesh": 1
    },
    {
      "name": "Cylinder003_2",
      "extras": {
        "name": "Cylinder003_2"
      },
      "mesh": 2
    },
    {
      "name": "Cylinder003_3",
      "extras": {
        "name": "Cylinder003_3"
      },
      "mesh": 3
    },
    {
      "matrix": [
        15.969245910644531,
        0,
        0,
        0,
        0,
        15.130887742927355,
        5.106177754311835,
        0,
        0,
        -5.106177754311835,
        15.130887742927355,
        0,
        -0.00008506746962666512,
        -1.1937010288238525,
        -0.40274912118911743,
        1
      ],
      "name": "Liquid",
      "extras": {
        "name": "Liquid"
      },
      "mesh": 4
    },
    {
      "matrix": [
        1,
        0,
        0,
        0,
        0,
        1,
        0,
        0,
        0,
        0,
        1,
        0,
        -0.007806945126503706,
        1.4601809978485107,
        -0.16807180643081665,
        1
      ],
      "name": "Gatorade_bottle_600ml",
      "extras": {
        "name": "Gatorade bottle 600ml"
      },
      "children": [
        0,
        1,
        2,
        3,
        4
      ]
    },
    {
      "name": "energy_drinkglb",
      "extras": {
        "name": "energy drink.glb"
      },
      "children": [
        5
      ]
    },
    {
      "name": "energy drink.gltf",
      "children": [
        6
      ]
    }
  ],
  "bufferViews": [
    {
      "buffer": 0,
      "byteOffset": 0,
      "byteLength": 67440,
      "target": 34962,
      "byteStride": 12
    },
    {
      "buffer": 0,
      "byteOffset": 67440,
      "byteLength": 67440,
      "target": 34962,
      "byteStride": 12
    },
    {
      "buffer": 0,
      "byteOffset": 134880,
      "byteLength": 44960,
      "target": 34962,
      "byteStride": 8
    },
    {
      "buffer": 0,
      "byteOffset": 179840,
      "byteLength": 44960,
      "target": 34962,
      "byteStride": 8
    },
    {
      "buffer": 0,
      "byteOffset": 224800,
      "byteLength": 34920,
      "target": 34963
    },
    {
      "buffer": 0,
      "byteOffset": 259720,
      "byteLength": 1536,
      "target": 34962,
      "byteStride": 12
    },
    {
      "buffer": 0,
      "byteOffset": 261256,
      "byteLength": 1536,
      "target": 34962,
      "byteStride": 12
    },
    {
      "buffer": 0,
      "byteOffset": 262792,
      "byteLength": 1024,
      "target": 34962,
      "byteStride": 8
    },
    {
      "buffer": 0,
      "byteOffset": 263816,
      "byteLength": 1024,
      "target": 34962,
      "byteStride": 8
    },
    {
      "buffer": 0,
      "byteOffset": 264840,
      "byteLength": 1152,
      "target": 34963
    },
    {
      "buffer": 0,
      "byteOffset": 265992,
      "byteLength": 3372,
      "target": 34962,
      "byteStride": 12
    },
    {
      "buffer": 0,
      "byteOffset": 269364,
      "byteLength": 3372,
      "target": 34962,
      "byteStride": 12
    },
    {
      "buffer": 0,
      "byteOffset": 272736,
      "byteLength": 2248,
      "target": 34962,
      "byteStride": 8
    },
    {
      "buffer": 0,
      "byteOffset": 274984,
      "byteLength": 2248,
      "target": 34962,
      "byteStride": 8
    },
    {
      "buffer": 0,
      "byteOffset": 277232,
      "byteLength": 2880,
      "target": 34963
    },
    {
      "buffer": 0,
      "byteOffset": 280112,
      "byteLength": 6528,
      "target": 34962,
      "byteStride": 12
    },
    {
      "buffer": 0,
      "byteOffset": 286640,
      "byteLength": 6528,
      "target": 34962,
      "byteStride": 12
    },
    {
      "buffer": 0,
      "byteOffset": 293168,
      "byteLength": 4352,
      "target": 34962,
      "byteStride": 8
    },
    {
      "buffer": 0,
      "byteOffset": 297520,
      "byteLength": 4352,
      "target": 34962,
      "byteStride": 8
    },
    {
      "buffer": 0,
      "byteOffset": 301872,
      "byteLength": 5928,
      "target": 34963
    },
    {
      "buffer": 0,
      "byteOffset": 307800,
      "byteLength": 18948,
      "target": 34962,
      "byteStride": 12
    },
    {
      "buffer": 0,
      "byteOffset": 326748,
      "byteLength": 18948,
      "target": 34962,
      "byteStride": 12
    },
    {
      "buffer": 0,
      "byteOffset": 345696,
      "byteLength": 12632,
      "target": 34962,
      "byteStride": 8
    },
    {
      "buffer": 0,
      "byteOffset": 358328,
      "byteLength": 17928,
      "target": 34963
    }
  ],
  "buffers": [
    {
      "byteLength": 376256,
      "uri": "data:application/octet-stream;base64,"
    }
  ],
  "accessors": [
    {
      "bufferView": 0,
      "componentType": 5126,
      "count": 5620,
      "max": [
        0.4724118411540985,
        1.5016329288482666,
        0.7465317249298096
      ],
      "min": [
        -0.4725819528102875,
        -1.6350014209747314,
        -0.9368101954460144
      ],
      "type": "VEC3"
    },
    {
      "bufferView": 1,
      "componentType": 5126,
      "count": 5620,
      "max": [
        1,
        0.999995231628418,
        0.999995231628418
      ],
      "min": [
        -1,
        -0.9999837875366211,
        -0.999995231628418
      ],
      "type": "VEC3"
    },
    {
      "bufferView": 2,
      "componentType": 5126,
      "count": 5620,
      "max": [
        0.9998618364334106,
        1
      ],
      "min": [
        0,
        0
      ],
      "type": "VEC2"
    },
    {
      "bufferView": 3,
      "componentType": 5126,
      "count": 5620,
      "max": [
        1.000553011894226,
        1.087800145149231
      ],
      "min": [
        0.00046123546781018376,
        0.46276766061782837
      ],
      "type": "VEC2"
    },
    {
      "bufferView": 4,
      "componentType": 5123,
      "count": 17460,
      "max": [
        5619
      ],
      "min": [
        0
      ],
      "type": "SCALAR"
    },
    {
      "bufferView": 5,
      "componentType": 5126,
      "count": 128,
      "max": [
        0.28956377506256104,
        1.7021162509918213,
        0.8105431199073792
      ],
      "min": [
        -0.2897339165210724,
        1.395392656326294,
        0.22609081864356995
      ],
      "type": "VEC3"
    },
    {
      "bufferView": 6,
      "componentType": 5126,
      "count": 128,
      "max": [
        0.99891597032547,
        0.39490875601768494,
        0.970154345035553
      ],
      "min": [
        -0.99891597032547,
        -0.4066857695579529,
        -0.9731912016868591
      ],
      "type": "VEC3"
    },
    {
      "bufferView": 7,
      "componentType": 5126,
      "count": 128,
      "max": [
        0.4900832176208496,
        0.9900860786437988
      ],
      "min": [
        0.24969327449798584,
        0.7497068643569946
      ],
      "type": "VEC2"
    },
    {
      "bufferView": 8,
      "componentType": 5126,
      "count": 128,
      "max": [
        0.836376428604126,
        0.7084251642227173
      ],
      "min": [
        0.7767314314842224,
        0.6487829685211182
      ],
      "type": "VEC2"
    },
    {
      "bufferView": 9,
      "componentType": 5123,
      "count": 576,
      "max": [
        127
      ],
      "min": [
        0
      ],
      "type": "SCALAR"
    },
    {
      "bufferView": 10,
      "componentType": 5126,
      "count": 281,
      "max": [
        0.49496158957481384,
        1.341465711593628,
        0.7774407863616943
      ],
      "min": [
        -0.4951317310333252,
        0.18415021896362305,
        -0.31293487548828125
      ],
      "type": "VEC3"
    },
    {
      "bufferView": 11,
      "componentType": 5126,
      "count": 281,
      "max": [
        1,
        0.8445990085601807,
        0.9999741315841675
      ],
      "min": [
        -1,
        -0.8550124764442444,
        -0.9992156028747559
      ],
      "type": "VEC3"
    },
    {
      "bufferView": 12,
      "componentType": 5126,
      "count": 281,
      "max": [
        0.9979566931724548,
        0.9884271025657654
      ],
      "min": [
        0.00257882964797318,
        0.010992348194122314
      ],
      "type": "VEC2"
    },
    {
      "bufferView": 13,
      "componentType": 5126,
      "count": 281,
      "max": [
        0.9623885750770569,
        0.7080135345458984
      ],
      "min": [
        0.7154181599617004,
        0.23053795099258423
      ],
      "type": "VEC2"
    },
    {
      "bufferView": 14,
      "componentType": 5123,
      "count": 1440,
      "max": [
        280
      ],
      "min": [
        0
      ],
      "type": "SCALAR"
    },
    {
      "bufferView": 15,
      "componentType": 5126,
      "count": 544,
      "max": [
        0.2958868145942688,
        1.7306621074676514,
        0.818075954914093
      ],
      "min": [
        -0.29605692625045776,
        1.3050973415374756,
        0.19036293029785156
      ],
      "type": "VEC3"
    },
    {
      "bufferView": 16,
      "componentType": 5126,
      "count": 544,
      "max": [
        0.9991830587387085,
        0.9995131492614746,
        0.9995006322860718
      ],
      "min": [
        -0.9991830587387085,
        -0.9798588752746582,
        -0.9974693059921265
      ],
      "type": "VEC3"
    },
    {
      "bufferView": 17,
      "componentType": 5126,
      "count": 544,
      "max": [
        0.4900832176208496,
        0.9900860786437988
      ],
      "min": [
        0.2496841549873352,
        0.7497035264968872
      ],
      "type": "VEC2"
    },
    {
      "bufferView": 18,
      "componentType": 5126,
      "count": 544,
      "max": [
        0.836376428604126,
        0.7084251642227173
      ],
      "min": [
        0.7767292261123657,
        0.6487820744514465
      ],
      "type": "VEC2"
    },
    {
      "bufferView": 19,
      "componentType": 5123,
      "count": 2964,
      "max": [
        543
      ],
      "min": [
        0
      ],
      "type": "SCALAR"
    },
    {
      "bufferView": 20,
      "componentType": 5126,
      "count": 1579,
      "max": [
        0.030557017773389816,
        0.16769756376743317,
        0.030556851997971535
      ],
      "min": [
        -0.030557017773389816,
        -0.019964586943387985,
        -0.030556851997971535
      ],
      "type": "VEC3"
    },
    {
      "bufferView": 21,
      "componentType": 5126,
      "count": 1579,
      "max": [
        0.9995520710945129,
        0.9999978542327881,
        0.9993409514427185
      ],
      "min": [
        -0.9995520710945129,
        -0.9999902248382568,
        -0.9993409514427185
      ],
      "type": "VEC3"
    },
    {
      "bufferView": 22,
      "componentType": 5126,
      "count": 1579,
      "max": [
        0.754077672958374,
        0.4279811978340149
      ],
      "min": [
        0.3919098377227783,
        -3.5762786865234375e-7
      ],
      "type": "VEC2"
    },
    {
      "bufferView": 23,
      "componentType": 5123,
      "count": 8964,
      "max": [
        1578
      ],
      "min": [
        0
      ],
      "type": "SCALAR"
    }
  ],
  "materials": [
    {
      "pbrMetallicRoughness": {
        "baseColorFactor": [
          0.4713801443576813,
          0.8003705143928528,
          0,
          1
        ],
        "metallicFactor": 0,
        "roughnessFactor": 0.5
      },
      "doubleSided": true,
      "name": "Translucent plastic.001"
    },
    {
      "pbrMetallicRoughness": {
        "baseColorFactor": [
          0.7529867887496948,
          0.20292064547538757,
          0.035216324031353,
          1
        ],
        "metallicFactor": 0,
        "roughnessFactor": 0.5
      },
      "doubleSided": true,
      "name": "Material.004",
      "extensions": {
        "KHR_materials_ior": {
          "ior": 1.4500000476837158
        },
        "KHR_materials_specular": {
          "specularFactor": 1,
          "specularColorFactor": [
            1.2923424243927002,
            1.2923424243927002,
            1.2923424243927002
          ]
        }
      }
    },
    {
      "pbrMetallicRoughness": {
        "metallicFactor": 0,
        "roughnessFactor": 0.10580913722515106,
        "baseColorTexture": {
          "index": 0,
          "texCoord": 0
        }
      },
      "doubleSided": true,
      "name": "label.001",
      "extensions": {
        "KHR_materials_ior": {
          "ior": 1.4500000476837158
        },
        "KHR_materials_specular": {
          "specularFactor": 1,
          "specularColorFactor": [
            1.0331950187683105,
            1.0331950187683105,
            1.0331950187683105
          ]
        }
      }
    },
    {
      "pbrMetallicRoughness": {
        "baseColorFactor": [
          0.7529424428939819,
          0.16202937066555023,
          0.025186864659190178,
          1
        ],
        "metallicFactor": 0,
        "roughnessFactor": 0.5
      },
      "doubleSided": true,
      "name": " Plastic.001",
      "extensions": {
        "KHR_materials_ior": {
          "ior": 1.4500000476837158
        },
        "KHR_materials_specular": {
          "specularFactor": 1,
          "specularColorFactor": [
            1.2923424243927002,
            1.2923424243927002,
            1.2923424243927002
          ]
        }
      }
    },
    {
      "pbrMetallicRoughness": {
        "baseColorFactor": [
          0.17474061250686646,
          0.5990659594535828,
          1,
          1
        ],
        "metallicFactor": 0,
        "roughnessFactor": 0
      },
      "doubleSided": true,
      "name": "water.001",
      "extensions": {
        "KHR_materials_transmission": {
          "transmissionFactor": 1
        },
        "KHR_materials_volume": {
          "thicknessFactor": 0,
          "attenuationColor": [
            1,
            1,
            1
          ]
        },
        "KHR_materials_ior": {
          "ior": 1.3300000429153442
        },
        "KHR_materials_specular": {
          "specularFactor": 1,
          "specularColorFactor": [
            1.5311203002929688,
            1.5311203002929688,
            1.5311203002929688
          ]
        }
      }
    }
  ],
  "meshes": [
    {
      "primitives": [
        {
          "mode": 4,
          "attributes": {
            "POSITION": 0,
            "NORMAL": 1,
            "TEXCOORD_0": 2,
            "TEXCOORD_1": 3
          },
          "indices": 4,
          "material": 0
        }
      ]
    },
    {
      "primitives": [
        {
          "mode": 4,
          "attributes": {
            "POSITION": 5,
            "NORMAL": 6,
            "TEXCOORD_0": 7,
            "TEXCOORD_1": 8
          },
          "indices": 9,
          "material": 1
        }
      ]
    },
    {
      "primitives": [
        {
          "mode": 4,
          "attributes": {
            "POSITION": 10,
            "NORMAL": 11,
            "TEXCOORD_0": 12,
            "TEXCOORD_1": 13
          },
          "indices": 14,
          "material": 2
        }
      ]
    },
    {
      "primitives": [
        {
          "mode": 4,
          "attributes": {
            "POSITION": 15,
            "NORMAL": 16,
            "TEXCOORD_0": 17,
            "TEXCOORD_1": 18
          },
          "indices": 19,
          "material": 3
        }
      ]
    },
    {
      "primitives": [
        {
          "mode": 4,
          "attributes": {
            "POSITION": 20,
            "NORMAL": 21,
            "TEXCOORD_0": 22
          },
          "indices": 23,
          "material": 4
        }
      ]
    }
  ],
  "textures": [
    {
      "sampler": 0,
      "source": 0,
      "name": "gate"
    }
  ],
  "samplers": [
    {
      "magFilter": 9729,
      "minFilter": 9987,
      "wrapS": 10497,
      "wrapT": 10497
    }
  ],
  "images": [
    {
      "mimeType": "image/png",
      "uri": "data:image/png;base64,"
    }
  ],
  "extensionsUsed": [
    "KHR_materials_ior",
    "KHR_materials_specular",
    "KHR_materials_transmission",
    "KHR_materials_volume"
  ]
}